<svg xmlns="http://www.w3.org/2000/svg" viewBox="0 0 239.99 566.58"><defs><style>.a{fill:#272e33;}.b{fill:#3f2728;}.c{fill:#171b1e;}.d{fill:#d3d3d3;}.e,.g{fill:#f7f7f7;}.e{opacity:0.44;isolation:isolate;}.f{fill:#fccab1;}.h{fill:#dda68a;}.i{fill:#eaeaea;}.j{fill:#cecece;}.k{fill:#508c8d;}.l{fill:#599e9e;}.m{fill:#a38c7c;}.n{fill:#eab69b;}.o{fill:#d68772;}.p{fill:#564f42;}.q{fill:#e2a893;}.r{fill:#efa98e;}.s{fill:#ece9de;}.t{fill:#443949;}.u{opacity:0.14;}.v{fill:#f7bb44;}.w{fill:#827d75;}.x{fill:#fff;}</style></defs><title>Asset 3</title><path class="a" d="M93.55,322.74s.93,73.46-4.58,106c-6.29,37.09,23.43,123.89,23.43,123.89h7.36s7.46-71.66,1.89-112.27c-4.72-34.45,12.21-68.93,12.21-68.93s15.67,134.15,12.85,181.48h9.06s14.87-29.59,21.56-75c2-13.62-6.16-34.64-4.5-49.2,4.84-42.46,9.9-85.79,4.44-111.89l-2.11-12.27Z"/><path class="b" d="M113.31,552.58s-20.64,5.66-16,7.4,23.34-7.4,23.34-7.4Z"/><path class="b" d="M146.72,552.86s7.12,14.32,11.4,13.71-2.35-13.71-2.35-13.71Z"/><path class="c" d="M116.08,552.58a10.84,10.84,0,0,1-.74-2.14l-.78-2.62c-.15-.52-.32-1.07-.49-1.67s-.35-1.24-.53-1.92c-1.44-5.43-3.38-13.33-5.2-23.22a340.48,340.48,0,0,1-4.49-35c-.11-1.66-.23-3.34-.35-5s-.19-3.41-.28-5.15c0-.87-.09-1.74-.14-2.62l-.1-2.64-.09-2.68c0-.9-.06-1.8-.07-2.7-.2-7.23-.16-14.72,0-22.38.3-15.33,1.2-29.91,2-43.15s1.71-25.15,2.29-35.17,1-18.11,1.17-23.72c.07-1.4.11-2.65.15-3.72s.09-2,.12-2.73a11.28,11.28,0,0,1,.2-2.25,11.3,11.3,0,0,1,.14,2.25c0,.74,0,1.65,0,2.74s0,2.32,0,3.73c0,5.61-.21,13.74-.64,23.76s-1.15,22-1.93,35.2-1.61,27.8-1.91,43.09c-.15,7.65-.19,15.1,0,22.31,0,.9,0,1.8.07,2.69l.08,2.66.09,2.64c0,.88.08,1.74.12,2.61.09,1.73.15,3.44.25,5.14s.22,3.36.33,5c.92,13.21,2.47,25.05,4.12,34.92s3.42,17.8,4.66,23.27c.15.68.3,1.33.46,1.93s.28,1.17.4,1.69l.63,2.66A12,12,0,0,1,116.08,552.58Z"/><path class="c" d="M155.77,552.86a12.22,12.22,0,0,1,.15-2.34c.14-1.52.4-3.76.73-6.64.17-1.44.35-3,.56-4.8s.36-3.66.56-5.72c.37-4.1.91-8.76,1.25-13.94.2-2.58.4-5.29.62-8.11.12-1.41.17-2.86.26-4.33s.16-3,.25-4.49.17-3.07.26-4.64c0-.79.09-1.57.12-2.38l.09-2.41q.16-4.87.35-10c.37-13.71.45-28.79.17-44.62s-.93-30.9-1.57-44.61c-.35-6.86-.67-13.37-1-19.46l-1-17c-.59-10.36-1.07-18.75-1.36-24.54-.14-2.9-.24-5.16-.29-6.69a12.09,12.09,0,0,1,0-2.33,12.73,12.73,0,0,1,.33,2.31c.15,1.52.36,3.77.6,6.66.49,5.79,1.15,14.16,1.89,24.52.38,5.18.78,10.85,1.16,16.95s.78,12.61,1.17,19.46c.73,13.71,1.39,28.8,1.71,44.66s.15,31-.3,44.7c-.14,3.43-.29,6.77-.43,10,0,.82-.07,1.63-.11,2.43s-.1,1.59-.14,2.38q-.17,2.37-.3,4.65l-.3,4.49c-.1,1.47-.17,2.92-.31,4.33q-.39,4.25-.73,8.13c-.41,5.18-1,9.84-1.5,13.94-.25,2-.46,4-.7,5.71s-.5,3.35-.71,4.78c-.44,2.88-.79,5.1-1,6.61A11.94,11.94,0,0,1,155.77,552.86Z"/><path class="d" d="M122.21,319.34l1.83,6.51,15.26-2.75-1.28-6Z"/><path class="e" d="M133.86,317.5c-.1.18-3.79,7.27-3.79,7.27l-2.51.45,3.2-7.16Z"/><path class="f" d="M35.14,98.85s3.53.88,6.23-.66,3.46-5.6,5.26-7.33,3.77-1,6-1.24,2.85-2.77-.38-4-7.1.81-8.75,3.4c0,0-3,3.06-1.35-2.78s7.14-25.51,3.1-23.85-4.69,16.28-4.69,16.28-2.85-2.23-4.45.22c0,0-3.19-2.2-4.5.36,0,0-2.13-2.44-4.51,2.45s-2,6.82-1.64,13.42S35.14,98.85,35.14,98.85Z"/><path class="f" d="M28.67,94.58,28,106.34l9,4.19L39.54,93.2Z"/><path class="g" d="M83.3,161.17s-.58,45.21,4.55,91S93.54,323,93.54,323l84.86-11s-17.65-30.49-9.11-49.42S199,172.45,199,172.45s-26.24-20.74-59.27-22.84S83.3,161.17,83.3,161.17Z"/><path class="f" d="M112.28,151.3l1.31-18.76,38-4.94s2.57,15.69.32,25.4C151.92,153,130.17,163.76,112.28,151.3Z"/><path class="h" d="M113.38,135.48c6.55,2.62,12.82,6,19.87,6.43s14.74-.34,19.32-5.68"/><path class="g" d="M172.67,214.27s44.4,20.8,35.92,50.77-38.18,58.57-38.18,58.57l8.78,10.51s60.24-42.22,60.8-87.26c.34-27.3-11.53-48.45-41-74.41Z"/><path class="g" d="M83.3,161.17c-1,2.74-44.49,20.44-48,14.72s3.37-67.95,3.37-67.95l-11.88-7.32S-17.84,179.79,8.11,203.7s76.39,6.52,76.39,6.52Z"/><path class="i" d="M112.28,151.3l.6-7L131,153l-.87,10.07Z"/><path class="j" d="M131,153l2.78,6.49-3.41.92Z"/><path class="j" d="M133.81,159.48l2.3-6.49,2.47,7.9Z"/><path class="i" d="M152.84,144.8c0,.27-16.73,8.19-16.73,8.19l2.47,9.57,17.28-10.46Z"/><path class="k" d="M130.4,157.31l6.75-.28,1.43,3.86-8.27.58Z"/><path class="l" d="M132.11,157v5.53l4.09.5v-5.93Z"/><path class="i" d="M191,166.6c0,.06-.22.11-.59.18a4.78,4.78,0,0,0-1.5.65,6.54,6.54,0,0,0-1.74,1.89,13.94,13.94,0,0,0-1.46,3.19c-.75,2.55-1.63,5.65-2.3,9.13a95.38,95.38,0,0,0-1.56,11.41,98.59,98.59,0,0,0-.16,11.53c.14,3.55.54,6.72.9,9.39.78,5.31,1.59,8.57,1.33,8.64s-1.4-3.1-2.49-8.45a73.83,73.83,0,0,1-1.27-9.49,81.48,81.48,0,0,1,1.74-23.36l.62-2.56c.23-.82.45-1.62.68-2.39s.47-1.51.7-2.21.44-1.39.7-2a13.58,13.58,0,0,1,1.8-3.33,6.7,6.7,0,0,1,2.19-1.91,3.84,3.84,0,0,1,1.79-.43C190.81,166.48,191,166.55,191,166.6Z"/><path class="i" d="M83.3,161.17c.23,0,.64,2.71,1.15,7.13s1.17,10.53,1.51,17.34c.17,3.4.21,6.65.16,9.6q0,1.11-.06,2.16c0,.7-.07,1.38-.1,2-.06,1.32-.18,2.54-.27,3.65-.22,2.23-.45,4-.68,5.25s-.4,1.9-.51,1.89-.16-.71-.14-1.95.08-3.05.15-5.26c0-1.11.06-2.32.06-3.62l0-2c0-.7,0-1.4,0-2.14,0-2.92-.12-6.14-.28-9.51-.35-6.75-.82-12.88-1-17.32S83.07,161.19,83.3,161.17Z"/><path class="i" d="M129.23,319.86A22.42,22.42,0,0,1,128,315.7c-.17-.68-.37-1.43-.58-2.25s-.39-1.73-.61-2.7c-.42-1.94-.94-4.13-1.37-6.6l-.72-3.85c-.25-1.34-.45-2.75-.69-4.2s-.49-3-.67-4.5-.41-3.15-.63-4.79c-.76-6.56-1.39-13.8-1.69-21.42s-.19-14.89.08-21.5c.09-1.64.18-3.26.27-4.82s.22-3.07.34-4.54.22-2.88.36-4.23.3-2.66.43-3.9c.25-2.48.6-4.72.88-6.68.14-1,.27-1.89.41-2.74s.28-1.6.41-2.28a21.29,21.29,0,0,1,.94-4.24,20.94,20.94,0,0,1-.3,4.33l-.26,2.3-.27,2.74c-.19,2-.45,4.2-.63,6.68l-.32,3.9c-.11,1.35-.17,2.76-.27,4.22s-.21,3-.25,4.52-.13,3.15-.2,4.8c-.19,6.57-.21,13.8.05,21.37s.88,14.78,1.55,21.32c.19,1.63.37,3.22.55,4.77s.4,3,.59,4.49.38,2.85.59,4.19.42,2.62.61,3.85c.36,2.46.79,4.67,1.13,6.61.16,1,.33,1.88.47,2.72s.31,1.59.43,2.28A20.86,20.86,0,0,1,129.23,319.86Z"/><path class="l" d="M132.11,162.56S107,242.9,115.88,274.27l8.1,10,10.8-10s-8.93-30.53-5.4-64,6.82-47.22,6.82-47.22Z"/><path class="i" d="M167.43,268.91c.1.18-.78,1-2.46,1.8l-.66.31c-.23.11-.48.2-.74.3-.51.22-1.07.39-1.67.58a23.1,23.1,0,0,1-4,.77,23.82,23.82,0,0,1-4.05,0c-.61-.07-1.2-.13-1.74-.24l-.79-.16-.71-.18c-1.81-.5-2.82-1.09-2.75-1.29s1.2-.05,3,.13l.7.07.75.05c.53.05,1.09.06,1.67.08a36.93,36.93,0,0,0,3.79-.14,36.55,36.55,0,0,0,3.75-.59c.57-.14,1.11-.25,1.61-.4l.73-.2.67-.2C166.24,269.08,167.31,268.69,167.43,268.91Z"/><path class="i" d="M164.75,273.46c.14.44-2.14,1.59-5.1,2.56s-5.48,1.4-5.62,1,2.14-1.58,5.1-2.55S164.6,273,164.75,273.46Z"/><path class="i" d="M147.9,205.94v14.69l9.76,6.17,7.09-8.22V205.94Z"/><path class="m" d="M139,322l16.58-2.5-.7-4.6L138,317.26Z"/><path class="m" d="M161,314.16l.7,4.49,15.62-2.1-.79-4.49Z"/><path class="m" d="M123.51,324l-13.88,1.9-1-4.78,13.56-1.73Z"/><path class="m" d="M102.71,322l.79,4.37-10,1.23.08-4.6Z"/><path class="f" d="M171.75,325.22s-7.79,3-10.86,1.07-1.53-5.74-3.19-5.49-3.45,7,2.43,11.25c0,0,3.45,1,2.81,1.53a26.74,26.74,0,0,0-1.93,1.91l9.4,9.08S178,334.08,178,332.68Z"/><path class="n" d="M104.3,90.56c-1.57.5-10.1,2.24-7.22,12.74s10.34,8,10.34,8Z"/><path class="o" d="M104.7,107.42c0,.06-.22.09-.59,0a4.66,4.66,0,0,1-1.49-.49,5.7,5.7,0,0,1-1.54-9,4.45,4.45,0,0,1,1.25-.95c.33-.17.54-.2.56-.16s-.63.51-1.36,1.49a6.12,6.12,0,0,0-1,1.87,5.23,5.23,0,0,0,.83,4.81,6.26,6.26,0,0,0,1.51,1.44C103.93,107.15,104.72,107.29,104.7,107.42Z"/><path class="o" d="M105.46,102.64c-.12,0-.35-.27-.83-.62a3,3,0,0,0-3.43-.14,4.26,4.26,0,0,0-.84.75l-.39-.24c.27-.28.46-.41.53-.37s0,.28-.15.63l-.39-.25a2.69,2.69,0,0,1,.81-1.11,3.18,3.18,0,0,1,1.74-.72,3.1,3.1,0,0,1,2.53,1C105.5,102.14,105.55,102.6,105.46,102.64Z"/><path class="n" d="M161.61,90.56c1.57.5,10.1,2.24,7.21,12.74s-10.33,8-10.33,8Z"/><path class="o" d="M161.21,107.42c0-.13.77-.27,1.78-1A6.26,6.26,0,0,0,164.5,105a5.25,5.25,0,0,0,.82-4.82,6.12,6.12,0,0,0-.95-1.87c-.72-1-1.42-1.36-1.35-1.49s.23,0,.56.16a4.68,4.68,0,0,1,1.25,1,5.73,5.73,0,0,1-1.54,9,4.72,4.72,0,0,1-1.5.49C161.42,107.51,161.22,107.48,161.21,107.42Z"/><path class="o" d="M160.45,102.64c-.09,0,0-.5.42-1a3,3,0,0,1,1-.74,2.94,2.94,0,0,1,1.52-.27,3,3,0,0,1,1.75.72,2.68,2.68,0,0,1,.81,1.1l-.39.25c-.16-.35-.22-.58-.15-.62s.26.08.53.36l-.4.24a3.76,3.76,0,0,0-.84-.75,2.95,2.95,0,0,0-3.43.15C160.8,102.37,160.56,102.69,160.45,102.64Z"/><path class="f" d="M154.07,135c-8.59,8.53-39.91,2.46-44.24-1.34S103.1,81,103.1,81c-1.78-25.26,13.46-26.81,28.13-30.39S161.52,55,163,75.86C163,75.86,161,128.1,154.07,135Z"/><path class="p" d="M138.79,67.55l1,7.69s8.72-1.77,16.34,3l2.37-2.49A21.89,21.89,0,0,0,138.79,67.55Z"/><path class="p" d="M139.71,75.86c-.21.1-1.17-1.52-2-3.69s-1.1-4-.88-4.09.88,1.67,1.66,3.8S139.92,75.76,139.71,75.86Z"/><path class="p" d="M104.46,94.25,107,61.47c20.46,9.41,29.51-6.28,29.51-6.28,12.41,9.35,19.12,1.87,19.12,1.87-3,10.6,4.7,18.07,4.7,18.07l-2,21.2h3.35l2-16s5.7-2.42,11.4-15.2S164,48.65,164,48.65s1.68-1.57-9.39-15.59-28.16,1.56-28.16,1.56-3-5.3-16.44-7.79-9.73,18.39-9.73,18.39-3,.62-7.71,6.23.67,7.17,3,11.22c2,3.47,5.58,26.51,6.18,31.88Z"/><path class="q" d="M130.53,110.27s0,.16-.17.34a2,2,0,0,1-.94.51,1.94,1.94,0,0,1-.83,0,1.67,1.67,0,0,1-.91-.58,2.09,2.09,0,0,1-.45-1.12,4.32,4.32,0,0,1,0-1.19c.06-.4.14-.77.21-1.17l.24-1.23c.17-.85.35-1.76.55-2.72.4-1.91.87-4,1.38-6.2.92-3.94,1.83-7.54,2.59-10.24l.34.71a9.23,9.23,0,0,1-3.23-3c-.56-.88-.7-1.45-.6-1.5s.46.36,1.15,1a11.42,11.42,0,0,0,3.25,2.3l.43.2-.1.51c-.52,2.77-1.29,6.39-2.2,10.34-.52,2.2-1,4.27-1.51,6.17-.25.94-.48,1.84-.7,2.68l-.64,2.31a2.15,2.15,0,0,0,0,1.54,1,1,0,0,0,.39.36,1.4,1.4,0,0,0,.53.11,2.39,2.39,0,0,0,.83-.15C130.37,110.26,130.49,110.22,130.53,110.27Z"/><path class="r" d="M139.76,92s1.48-9,7.39-8.67S156.1,89,156.1,89,144.91,81.07,139.76,92Z"/><path class="s" d="M139.76,92s3.93-5.75,7.32-5.89c3-.13,9,2.88,9,2.88Z"/><path class="t" d="M156.64,89.18c-.1.22-1.2-.13-2.88-.73a16.33,16.33,0,0,0-6.55-1.19,7.47,7.47,0,0,0-3.32,1,9,9,0,0,0-2.19,1.93c-.58.65-1,1.24-1.37,1.62s-.58.57-.68.51-.05-.36.12-.85a11,11,0,0,1,1-2A8.59,8.59,0,0,1,143.05,87a8.2,8.2,0,0,1,4-1.37,11.27,11.27,0,0,1,4.12.49,16.53,16.53,0,0,1,3,1.29C155.86,88.27,156.74,89,156.64,89.18Z"/><path class="t" d="M143.48,91.5A10.88,10.88,0,0,1,144.77,88a3.34,3.34,0,0,1,5.65-.52A11.38,11.38,0,0,1,152,90l-8.63,1.58"/><path class="s" d="M152.88,88.84c0,.23-.76.42-1.7.42s-1.69-.19-1.69-.42.76-.42,1.69-.42S152.88,88.61,152.88,88.84Z"/><path class="r" d="M126.81,92s-1.47-9-7.38-8.67-9,5.67-9,5.67S121.66,81.07,126.81,92Z"/><path class="s" d="M126.81,92s-3.92-5.75-7.31-5.89c-3-.13-9,2.88-9,2.88Z"/><path class="t" d="M109.93,89.18c-.1-.2.79-.91,2.41-1.81a16.53,16.53,0,0,1,3-1.29,11.27,11.27,0,0,1,4.12-.49,8,8,0,0,1,4,1.37,8.49,8.49,0,0,1,2.32,2.53,11,11,0,0,1,1,2c.17.49.22.79.11.85s-.33-.13-.67-.51-.79-1-1.37-1.62a9.2,9.2,0,0,0-2.2-1.93,7.47,7.47,0,0,0-3.31-1,16.35,16.35,0,0,0-6.56,1.19C111.13,89.05,110,89.4,109.93,89.18Z"/><path class="t" d="M123.1,91.5A11.12,11.12,0,0,0,121.81,88a3.34,3.34,0,0,0-5.65-.52A11.38,11.38,0,0,0,114.59,90l8.63,1.58"/><path class="s" d="M120.66,89.66c.06-.23.84-.22,1.75,0s1.59.6,1.53.83-.84.21-1.74,0S120.61,89.88,120.66,89.66Z"/><path class="p" d="M127.3,69.7l-1,7.69s-8.72-1.76-16.34,3l-2.37-2.49A21.88,21.88,0,0,1,127.3,69.7Z"/><path class="p" d="M126.38,78c-.21-.1.41-1.85,1.18-4s1.44-3.86,1.67-3.8-.09,1.92-.88,4.08S126.59,78.11,126.38,78Z"/><path class="s" d="M124.68,116.77a16.42,16.42,0,0,0,23-3.46,14.3,14.3,0,0,0,.91-1.38"/><g class="u"><path class="o" d="M145.6,117.25c.16.13-.25,1-1.42,2.14a10.15,10.15,0,0,1-2.3,1.59,11.12,11.12,0,0,1-3.29,1.06,11.47,11.47,0,0,1-3.46,0,10.11,10.11,0,0,1-2.67-.84c-1.43-.7-2.1-1.45-2-1.63s1,.17,2.39.52a13.11,13.11,0,0,0,10.6-1.6C144.69,117.7,145.41,117.09,145.6,117.25Z"/></g><g class="u"><path class="o" d="M141.53,128.16c0,.24-.62.32-1.49.43-.43,0-.94.11-1.49.2s-1.16.2-1.78.35-1.21.34-1.75.52-1,.36-1.41.52c-.81.31-1.36.5-1.51.32s.16-.71.9-1.33a7.89,7.89,0,0,1,1.42-.93,9.5,9.5,0,0,1,2-.72,10.1,10.1,0,0,1,2-.27,7.39,7.39,0,0,1,1.69.16C141.05,127.61,141.58,127.94,141.53,128.16Z"/></g><path class="a" d="M129.43,92.32a2.42,2.42,0,0,1-.12-.76l-.05-.41c0-.16-.06-.32-.09-.5a8.18,8.18,0,0,0-.28-1.21,11.36,11.36,0,0,0-1.36-3.11,11.81,11.81,0,0,0-3-3.29,11.68,11.68,0,0,0-4.91-2.13,10.49,10.49,0,0,0-1.47-.16c-.25,0-.5,0-.76,0l-.77,0-.38,0-.39.06c-.25.05-.52.08-.78.14a10.47,10.47,0,0,0-1.54.46,11.9,11.9,0,0,0-1.51.66l-.71.44c-.12.07-.25.14-.36.22l-.34.26a14.06,14.06,0,0,0-1.31,1.12,13.13,13.13,0,0,0-1.13,1.34l-.27.36-.23.37-.23.39a3.72,3.72,0,0,0-.21.39l-.39.82-.32.85a11.51,11.51,0,0,0,0,7.29l.32.86.39.81a3,3,0,0,0,.21.4l.23.38.23.38.27.36a13.13,13.13,0,0,0,1.13,1.34,12.87,12.87,0,0,0,1.31,1.12l.34.26a3.13,3.13,0,0,0,.36.22l.71.44a13.52,13.52,0,0,0,1.51.66,11.84,11.84,0,0,0,1.54.46c.26.06.52.09.78.13l.39.06c.12,0,.26,0,.38,0l.77,0c.26,0,.5,0,.76,0a10.49,10.49,0,0,0,1.47-.16,11.57,11.57,0,0,0,4.91-2.14,11.77,11.77,0,0,0,3-3.28,11.06,11.06,0,0,0,1.36-3.11,8.61,8.61,0,0,0,.28-1.22c0-.17.07-.34.09-.49l0-.41a2.82,2.82,0,0,1,.13-.76,2.83,2.83,0,0,1,0,.77v.42c0,.16,0,.32-.05.5a8.72,8.72,0,0,1-.21,1.26,11,11,0,0,1-1.28,3.27,11.83,11.83,0,0,1-3.05,3.52,12.18,12.18,0,0,1-5.14,2.35,11.86,11.86,0,0,1-1.56.19c-.26,0-.53,0-.8,0l-.82,0a2.83,2.83,0,0,1-.41,0l-.41-.06-.83-.12a13.53,13.53,0,0,1-1.65-.48,12.06,12.06,0,0,1-1.61-.7c-.27-.14-.52-.3-.78-.45s-.26-.15-.38-.24l-.37-.28a14.21,14.21,0,0,1-1.41-1.18,15,15,0,0,1-1.21-1.43l-.29-.38-.25-.41-.25-.41a2.82,2.82,0,0,1-.23-.42l-.42-.87-.34-.92a12.28,12.28,0,0,1,0-7.81l.34-.92.42-.87c.07-.14.15-.28.23-.42l.25-.41.26-.4.28-.38a12.87,12.87,0,0,1,1.21-1.43,14.32,14.32,0,0,1,1.41-1.19l.37-.27c.12-.09.25-.16.38-.24s.51-.32.77-.46a13.49,13.49,0,0,1,3.26-1.17c.28-.06.56-.09.83-.13l.42-.06.41,0,.81,0c.27,0,.54,0,.8,0a10.23,10.23,0,0,1,1.56.19,12.18,12.18,0,0,1,8.2,5.86,11.23,11.23,0,0,1,1.27,3.27,8.72,8.72,0,0,1,.21,1.26c0,.18,0,.35.05.51v.42A2.48,2.48,0,0,1,129.43,92.32Z"/><path class="a" d="M157.87,92.32a2.46,2.46,0,0,1-.12-.76l0-.41c0-.16-.07-.32-.1-.5a8.15,8.15,0,0,0-.27-1.21A11.67,11.67,0,0,0,156,86.33,11.84,11.84,0,0,0,153,83a11.68,11.68,0,0,0-4.91-2.13,10.17,10.17,0,0,0-1.47-.16c-.25,0-.5,0-.76,0l-.76,0-.39,0-.38.06c-.26.05-.53.08-.79.14a10.34,10.34,0,0,0-1.53.46,11.9,11.9,0,0,0-1.51.66c-.25.14-.48.29-.72.44s-.25.14-.36.22L139,83a12.58,12.58,0,0,0-1.3,1.12,12,12,0,0,0-1.13,1.34l-.27.36-.23.37-.23.39a3.84,3.84,0,0,0-.22.39l-.39.82-.31.85A11.51,11.51,0,0,0,135,96l.31.86.39.81a3.11,3.11,0,0,0,.22.4l.23.38.24.38.26.36a12,12,0,0,0,1.13,1.34,14.06,14.06,0,0,0,1.31,1.12l.34.26c.11.08.24.15.35.22l.72.44a13.37,13.37,0,0,0,3,1.12c.26.06.52.09.78.13l.38.06.39,0,.77,0,.76,0a10.49,10.49,0,0,0,1.47-.16,11.57,11.57,0,0,0,4.91-2.14,11.92,11.92,0,0,0,3-3.28,11.67,11.67,0,0,0,1.36-3.11,10.26,10.26,0,0,0,.28-1.22c0-.17.07-.34.09-.49l0-.41a2.8,2.8,0,0,1,.12-.76,2.48,2.48,0,0,1,0,.77v.42c0,.16,0,.32-.06.5a7.52,7.52,0,0,1-.2,1.26,11,11,0,0,1-1.28,3.27,11.83,11.83,0,0,1-3,3.52,12.16,12.16,0,0,1-5.15,2.35,11.51,11.51,0,0,1-1.55.19c-.27,0-.54,0-.8,0l-.82,0a2.83,2.83,0,0,1-.41,0l-.41-.06c-.28,0-.56-.07-.83-.12a13.6,13.6,0,0,1-3.27-1.18c-.26-.14-.51-.3-.77-.45s-.26-.15-.38-.24l-.36-.28a13.35,13.35,0,0,1-1.41-1.18A13.76,13.76,0,0,1,136,99.63l-.28-.38-.25-.41-.25-.41a2.86,2.86,0,0,1-.24-.42l-.42-.87-.34-.92a12.28,12.28,0,0,1,0-7.81l.34-.92.42-.87a2.86,2.86,0,0,1,.24-.42l.25-.41.25-.4L136,85a13.76,13.76,0,0,1,1.22-1.43,16,16,0,0,1,1.4-1.19l.37-.26c.12-.09.26-.16.38-.24s.51-.32.77-.46a13.58,13.58,0,0,1,3.27-1.17c.27-.06.55-.09.83-.13l.41-.06a2.82,2.82,0,0,1,.41,0l.82,0c.27,0,.54,0,.8,0a10.1,10.1,0,0,1,1.55.19,12.18,12.18,0,0,1,8.2,5.86,11,11,0,0,1,1.28,3.27,7.52,7.52,0,0,1,.2,1.26c0,.18,0,.35.06.51v.42A2.83,2.83,0,0,1,157.87,92.32Z"/><path class="a" d="M134.92,92.5c0,.23-1.23.38-2.73.34s-2.7-.26-2.7-.49,1.23-.38,2.73-.34S134.92,92.27,134.92,92.5Z"/><path class="v" d="M42.58,0S26.38.27,25.76,14.64s9.57,19.67,12.67,20S58.69,33.34,58.67,17.8,49-.16,42.58,0Z"/><path class="v" d="M42.58,0S26.38.27,25.76,14.64s9.57,19.67,12.67,20S58.69,33.34,58.67,17.8,49-.16,42.58,0Z"/><path class="v" d="M35.62,29.07l1.92,9.76,9.35-.1L49.51,28l-14.62.7"/><path class="w" d="M50.89,40.87c0,.37-3.44.68-7.66,1.2s-7.62,1-7.71.68,3.25-1.48,7.55-2S50.89,40.51,50.89,40.87Z"/><path class="w" d="M49.42,43.7c0,.36-2.6,1-5.9,1.42s-6,.6-6.06.23,2.57-1.1,5.88-1.55S49.38,43.33,49.42,43.7Z"/><path class="w" d="M46.4,47.74c.05.37-1,.79-2.3.95s-2.41,0-2.45-.39,1-.78,2.3-.94S46.36,47.38,46.4,47.74Z"/><path class="x" d="M47.15,38.28a4.17,4.17,0,0,1-.07-.93c0-.61,0-1.5-.06-2.65,0-2.31,0-5.64.13-9.77,0-1,.09-2.11.17-3.24a29.49,29.49,0,0,1,.42-3.51c0-.15.07-.3.12-.46a2.1,2.1,0,0,1,.2-.49l.09-.13a.7.7,0,0,1,.16-.14.63.63,0,0,1,.4-.09.73.73,0,0,1,.35.15,1.15,1.15,0,0,1,.21.23,3.33,3.33,0,0,1,.43.94,8.13,8.13,0,0,1,.21,1,11.37,11.37,0,0,1-.14,4.07,8.12,8.12,0,0,1-.72,2A5.24,5.24,0,0,1,47.63,27a4.15,4.15,0,0,1-1,.58,5.1,5.1,0,0,1-.55.19l-.3.06a1.53,1.53,0,0,1-.3,0,2.77,2.77,0,0,1-1.21-.18,3.49,3.49,0,0,1-1-.66,6.27,6.27,0,0,1-1.33-1.94,11.84,11.84,0,0,1-.75-2.22,14.28,14.28,0,0,1-.32-2.35A7.87,7.87,0,0,1,41,18.07c0-.11.07-.22.1-.32s.09-.2.13-.31a1.29,1.29,0,0,1,.22-.3.68.68,0,0,1,.43-.27.54.54,0,0,1,.35.06.68.68,0,0,1,.21.17,1.27,1.27,0,0,1,.2.34,4.06,4.06,0,0,1,.19.62A10.52,10.52,0,0,1,43,20.44,13.24,13.24,0,0,1,42.14,25a5.49,5.49,0,0,1-1.27,2,3.07,3.07,0,0,1-1,.65,2.57,2.57,0,0,1-.61.14,1.91,1.91,0,0,1-.63,0,2.56,2.56,0,0,1-1.07-.56,6,6,0,0,1-.76-.83,9,9,0,0,1-1-1.89,14,14,0,0,1-1-3.93,6.68,6.68,0,0,1,0-1,4.34,4.34,0,0,1,.07-.52,1.38,1.38,0,0,1,.24-.54.59.59,0,0,1,.31-.23.68.68,0,0,1,.4,0,1.28,1.28,0,0,1,.51.28,3,3,0,0,1,.35.36,4.1,4.1,0,0,1,.29.4,6.57,6.57,0,0,1,.73,1.7,14,14,0,0,1,.4,1.7,29.11,29.11,0,0,1,.42,3.23c.18,2.06.22,3.93.23,5.57s0,3.05-.07,4.21-.1,2-.15,2.65a4.81,4.81,0,0,1-.11.92,4.82,4.82,0,0,1,0-.93c0-.61,0-1.5,0-2.65s0-2.56,0-4.19-.13-3.49-.33-5.54a31.77,31.77,0,0,0-.45-3.17,14.56,14.56,0,0,0-.41-1.64,6.07,6.07,0,0,0-.68-1.57,2.6,2.6,0,0,0-.25-.33,1.59,1.59,0,0,0-.29-.29.72.72,0,0,0-.29-.17c-.07,0-.06,0-.12,0a.79.79,0,0,0-.13.33,2,2,0,0,0-.05.42,5.66,5.66,0,0,0,0,.92,13.44,13.44,0,0,0,1,3.75,8.7,8.7,0,0,0,.95,1.75,2.72,2.72,0,0,0,1.46,1.14,1.93,1.93,0,0,0,1.67-.6,4.85,4.85,0,0,0,1.11-1.72,13,13,0,0,0,.81-4.31,11.11,11.11,0,0,0-.16-2.23A2.13,2.13,0,0,0,42,17.7a.59.59,0,0,0-.1-.17v0h0l0-.05,0-.05h0v0l0,.06h0l0,.05-.12.18c0,.08-.07.15-.1.23l-.08.25a7.94,7.94,0,0,0-.16,2.23,13.93,13.93,0,0,0,.32,2.23,10.57,10.57,0,0,0,.7,2.1,5.39,5.39,0,0,0,1.17,1.74,3,3,0,0,0,.83.53,2.16,2.16,0,0,0,.94.15,1,1,0,0,0,.24,0l.23-.05a3.68,3.68,0,0,0,.47-.15,3.52,3.52,0,0,0,.86-.5A4.56,4.56,0,0,0,48.5,25a7.33,7.33,0,0,0,.67-1.87,10.84,10.84,0,0,0,.16-3.85,5.77,5.77,0,0,0-.19-.9,2.76,2.76,0,0,0-.33-.77.34.34,0,0,0-.18-.15h0c-.05-.1,0,0,0,0l0,0h0l0,0,0,.05a3.18,3.18,0,0,0-.26.79,28.24,28.24,0,0,0-.45,3.43c-.09,1.12-.16,2.19-.21,3.22-.21,4.11-.28,7.44-.34,9.74l-.07,2.66A5,5,0,0,1,47.15,38.28Z"/></svg>