<svg xmlns="http://www.w3.org/2000/svg" xmlns:xlink="http://www.w3.org/1999/xlink" viewBox="0 0 574 516.36"><defs><style>.a{fill:#f1ce5c;}.b{fill:#f3f0ea;}.c{fill:#463d7e;}.d{fill:#dc9c41;}.e{fill:#595168;}.f{fill:#a8a8a8;}.g{fill:#d8d8d8;}.h{fill:#453f4f;}.i{fill:#272e33;}.j{fill:#eab69b;}.k{fill:#d68772;}.l,.z{fill:#f7f7f7;}.m{fill:#fccab1;}.n{fill:#dda68a;}.o{fill:#564f42;}.p{fill:#e2a893;}.q{fill:#efa98e;}.r{fill:#ece9de;}.s{fill:#443949;}.t{opacity:0.14;}.u{fill:#eaeaea;}.v{fill:#cecece;}.w{fill:#508c8d;}.x{fill:#599e9e;}.y{fill:#d3d3d3;}.z{opacity:0.44;}.ab,.z{isolation:isolate;}.aa{fill:#a38c7c;}.ab{opacity:0.15;fill:url(#a);}.ac{fill:#3f2728;}.ad{fill:#58646b;}.ae{fill:#968171;}.af{fill:#846a64;}.ag{fill:#6f7f87;}</style><linearGradient id="a" x1="-500.94" y1="798.78" x2="-500.5" y2="799.66" gradientTransform="matrix(343.27, 0, 0, -195.41, 172062.16, 156339.47)" gradientUnits="userSpaceOnUse"><stop offset="0.04" stop-color="#15eeff"/><stop offset="1" stop-color="#6dbfbe" stop-opacity="0"/></linearGradient></defs><title>Asset 2</title><path class="a" d="M461.88,175.53,483,173.64V274.58l-21.15,1.05Z"/><path class="b" d="M465,180.18l2.07,53.06,6.5.41,1.19-52.84Z"/><path class="c" d="M474.14,248.89a2.6,2.6,0,0,1-3.68,3.68h0a2.6,2.6,0,1,1,3.68-3.68Z"/><path class="d" d="M483.65,275.45,478.35,169l26.94-1V275.63Z"/><path class="b" d="M487.54,180.18l2.06,53.06,6.5.41,1.2-52.84Z"/><path class="c" d="M497.36,250.73a2.51,2.51,0,1,1-2.51-2.51h0a2.51,2.51,0,0,1,2.51,2.5Z"/><path class="a" d="M505.29,175.53l21.15-1.89V274.58l-21.15,1.05Z"/><path class="b" d="M508.39,180.18l2.07,53.06,6.5.41,1.19-52.84Z"/><path class="c" d="M517.54,248.89a2.6,2.6,0,1,1-3.68,3.68h0a2.6,2.6,0,0,1,3.68-3.68Z"/><path class="e" d="M337.69,334.15,363,115.9l-169.61-4.24,13,222.49Z"/><path class="f" d="M269.3,481.76l73.31,19.68v4h-7.16l-69.19-16.81Z"/><path class="g" d="M259.7,355.72v126h9.6V356.38Z"/><path class="f" d="M253.48,355.72V396.5s20.9.79,21.69,0,0-39.67,0-39.67Z"/><rect class="h" x="190.34" y="334.15" width="158.92" height="22.75"/><path class="g" d="M193.05,501.46c1-.33,66.65-19.7,66.65-19.7h4.8v6.46l-71.45,18.72Z"/><path class="g" d="M266.26,481.76v6.91l29.32,16.81h5.89v-2.55L269.3,481.76Z"/><circle class="f" cx="193.36" cy="509.03" r="5.42"/><circle class="f" cx="301.12" cy="509.03" r="5.42"/><circle class="f" cx="343.12" cy="509.03" r="5.42"/><path class="f" d="M275.41,371.47h1.84v-3.59h1.63V377h-1.73v-3.53h-1.7"/><path class="i" d="M225.36,310.19S198,346.13,202.16,375.4,226.21,504,226.21,504h9.4s18-64.45,0-124.4c0,0-6.27-26.14,34.5-23s30.88,23.56,27.18,35.54c-6.23,20.21-14.64,18.82-5.23,64.82l9.41,46v5.22h9.41s13.59-78.4,19.86-122.3,5.11-57.67-15.1-78.53Z"/><path class="j" d="M258.41,66.86c-1.7.36-10.84,1.31-8.89,12.64s10,9.51,10,9.51Z"/><path class="k" d="M257.1,84.62s-.23.06-.61,0a4.91,4.91,0,0,1-1.52-.66,6,6,0,0,1-.7-9.63,4.71,4.71,0,0,1,1.41-.88c.37-.14.58-.16.6-.11s-.71.48-1.58,1.43a6.3,6.3,0,0,0-1.18,1.87,5.51,5.51,0,0,0,.37,5.13,6.45,6.45,0,0,0,1.44,1.68C256.33,84.25,257.14,84.48,257.1,84.62Z"/><path class="k" d="M258.39,79.66c-.13,0-.34-.32-.8-.72a3.12,3.12,0,0,0-3.59-.51,4.15,4.15,0,0,0-1,.7l-.39-.29c.31-.26.52-.38.59-.33s0,.29-.21.64l-.4-.3a3,3,0,0,1,1-1.08,3.32,3.32,0,0,1,1.91-.57,3.23,3.23,0,0,1,2.55,1.32C258.49,79.14,258.49,79.63,258.39,79.66Z"/><path class="j" d="M318.62,72.72c1.59.68,10.38,3.38,6.28,14.12s-11.69,7.4-11.69,7.4Z"/><path class="k" d="M316.48,90.4c0-.15.82-.22,2-.82a6.8,6.8,0,0,0,1.74-1.37,5.52,5.52,0,0,0,1.35-5,6.54,6.54,0,0,0-.8-2.06c-.67-1.1-1.36-1.59-1.27-1.71s.23,0,.57.23a4.74,4.74,0,0,1,1.2,1.12,6,6,0,0,1-2.53,9.32,4.54,4.54,0,0,1-1.62.36C316.69,90.51,316.48,90.46,316.48,90.4Z"/><path class="k" d="M316.17,85.29c-.1-.05,0-.53.54-1.06a3.23,3.23,0,0,1,4.52.13A2.86,2.86,0,0,1,322,85.6l-.44.22c-.13-.38-.17-.63-.09-.67s.26.12.52.43l-.44.22a4.19,4.19,0,0,0-.81-.87,3.1,3.1,0,0,0-3.62-.2C316.56,85,316.28,85.35,316.17,85.29Z"/><path class="l" d="M225.83,141.36s.09,45.17.8,93.74-1.27,75.09-1.27,75.09l90.27-2.87s-15.43-33.83-4.52-52.85,40.39-91.71,40.39-91.71-25.45-24.47-59.94-30S225.83,141.36,225.83,141.36Z"/><path class="m" d="M262.6,131.68l3-16.08,40.76-4.8s1.1,16.74-2.26,26.71C304.08,137.51,280.13,146.6,262.6,131.68Z"/><path class="n" d="M264.84,115.9c6.61,3.44,13.39,6.87,20.76,8.07s15.53-.19,20.88-5.33"/><path class="m" d="M306.15,118.66c-9.9,8.09-42.19-1.5-46.34-5.93s-1.68-56.09-1.68-56.09c.72-26.72,16.88-26.8,32.66-29s31.37,7.79,30.76,29.82C321.55,57.41,314.18,112.1,306.15,118.66Z"/><path class="o" d="M297,46.21l.24,8.17s9.33-1,16.85,4.84l2.74-2.38A23.08,23.08,0,0,0,297,46.21Z"/><path class="o" d="M297.11,55c-.22.08-1.07-1.72-1.68-4.08s-.74-4.35-.5-4.38.75,1.84,1.35,4.16S297.35,55,297.11,55Z"/><path class="o" d="M258.2,70.75l6-34.17c20.53,12,31.65-3.59,31.65-3.59,12.08,11.09,19.89,3.92,19.89,3.92-4.25,10.82,3.08,19.47,3.08,19.47l-4.28,22.06,3.53.34,3.74-16.57s6.24-2,13.53-14.8-9.93-18.49-9.93-18.49,1.92-1.46-8.27-17.33-29.76-1.25-29.76-1.25S284.76,4.47,270.93.48s-12.1,18.32-12.1,18.32-3.24.35-8.75,5.76,0,7.6,2,12.1c1.76,3.85,3.16,28.42,3.23,34.12Z"/><path class="p" d="M285.92,89.87s0,.18-.21.35a2.1,2.1,0,0,1-1,.44,1.87,1.87,0,0,1-.88-.09,1.69,1.69,0,0,1-.9-.7,2.17,2.17,0,0,1-.35-1.22,4.82,4.82,0,0,1,.16-1.25c.11-.41.22-.78.34-1.2l.38-1.27.86-2.8c.62-2,1.32-4.12,2.08-6.38,1.37-4,2.7-7.73,3.77-10.5l.28.78a9.67,9.67,0,0,1-3.08-3.46c-.5-1-.6-1.59-.48-1.64s.45.44,1.1,1.23a12,12,0,0,0,3.18,2.75l.43.25-.15.53c-.83,2.85-2,6.58-3.38,10.62-.76,2.26-1.51,4.4-2.21,6.33-.36,1-.7,1.89-1,2.75s-.63,1.64-.9,2.36a2.25,2.25,0,0,0-.16,1.61.91.91,0,0,0,.37.43,1.48,1.48,0,0,0,.54.17,3,3,0,0,0,.89-.07C285.76,89.85,285.88,89.82,285.92,89.87Z"/><path class="q" d="M295.51,72s2.47-9.31,8.65-8.36S313,70.54,313,70.54,302.05,61,295.51,72Z"/><path class="r" d="M295.51,72s4.72-5.64,8.3-5.44c3.16.18,9.18,4,9.18,4Z"/><path class="s" d="M313.55,70.76c-.14.22-1.25-.26-3-1.06a17.4,17.4,0,0,0-6.76-1.92,8,8,0,0,0-3.59.71,9.64,9.64,0,0,0-2.5,1.8c-.67.63-1.2,1.19-1.6,1.56s-.67.53-.77.47,0-.38.21-.88a11.35,11.35,0,0,1,1.23-2A8.83,8.83,0,0,1,299.49,67a8.54,8.54,0,0,1,4.37-1,11.73,11.73,0,0,1,4.29.94,17,17,0,0,1,3.05,1.66C312.81,69.72,313.66,70.56,313.55,70.76Z"/><path class="s" d="M299.47,71.85a11.79,11.79,0,0,1,1.71-3.53,3.53,3.53,0,0,1,6,0,11.42,11.42,0,0,1,1.4,2.82l-9.24.77"/><path class="r" d="M309.61,70c0,.24-.83.36-1.82.26s-1.76-.37-1.73-.61.84-.36,1.82-.27S309.64,69.77,309.61,70Z"/><path class="q" d="M281.91,70.7s-.63-9.61-6.87-9.86-10,5-10,5S277.62,58.66,281.91,70.7Z"/><path class="r" d="M281.91,70.7s-3.53-6.44-7.08-6.93c-3.14-.44-9.78,2.11-9.78,2.11Z"/><path class="s" d="M264.46,66c-.07-.22.92-.87,2.72-1.65a17.55,17.55,0,0,1,3.32-1,12,12,0,0,1,4.38-.09A8.57,8.57,0,0,1,279,65a9,9,0,0,1,2.17,2.89,11.44,11.44,0,0,1,.81,2.18c.14.54.15.86,0,.9s-.34-.17-.66-.61-.73-1.09-1.27-1.84A10,10,0,0,0,278,66.31a7.85,7.85,0,0,0-3.38-1.38,17.25,17.25,0,0,0-7,.58C265.74,66,264.55,66.22,264.46,66Z"/><path class="s" d="M278.06,69.76a11.61,11.61,0,0,0-1-3.79,4,4,0,0,0-3-2.25,3.91,3.91,0,0,0-2.85,1.13,11.71,11.71,0,0,0-1.92,2.5l8.92,2.54"/><path class="r" d="M275.69,67.58c.08-.23.9-.14,1.83.19s1.62.8,1.53,1-.9.14-1.83-.2S275.61,67.81,275.69,67.58Z"/><path class="o" d="M284.71,47.3l-1.81,8s-9-2.75-17.47,1.49l-2.23-2.86A23.07,23.07,0,0,1,284.71,47.3Z"/><path class="o" d="M282.89,55.93c-.21-.13.62-1.9,1.65-4.06s1.9-3.91,2.14-3.82-.29,2-1.35,4.2S283.1,56.05,282.89,55.93Z"/><path class="r" d="M277.14,96.48a17.32,17.32,0,0,0,24.47-1.3,15.8,15.8,0,0,0,1.1-1.35"/><g class="t"><path class="k" d="M299.07,99.12c.16.15-.37,1.07-1.71,2.1a10.35,10.35,0,0,1-2.58,1.43,11.5,11.5,0,0,1-7.19.39,10.79,10.79,0,0,1-2.73-1.16c-1.43-.88-2.05-1.74-1.91-1.91s1,.27,2.46.79a13.92,13.92,0,0,0,11.3-.6C298.07,99.5,298.88,98.93,299.07,99.12Z"/></g><g class="t"><path class="k" d="M293.67,110.17c-.06.24-.68.27-1.6.29-.45,0-1,0-1.59.05s-1.23.1-1.9.2-1.31.23-1.89.36-1.1.28-1.54.4c-.88.25-1.48.4-1.62.18s.24-.73,1.09-1.3a7.22,7.22,0,0,1,1.58-.83,9.74,9.74,0,0,1,4.31-.63,8.07,8.07,0,0,1,1.75.33C293.23,109.54,293.74,109.94,293.67,110.17Z"/></g><path class="u" d="M262.6,131.68l1.35-7.25,18.18,10.95-1.93,10.49Z"/><path class="v" d="M282.13,135.38l2.26,7.1-3.68.61Z"/><path class="v" d="M284.39,142.48l3.08-6.58,1.78,8.55Z"/><path class="u" d="M305.88,129c-.05.28-18.41,6.89-18.41,6.89l1.62,10.31L308.3,137Z"/><path class="w" d="M281,139.85l7.13.4,1.1,4.2-8.75-.24Z"/><path class="x" d="M282.85,139.73l-.57,5.81,4.25,1,.6-6.24Z"/><path class="u" d="M343.75,155.81c0,.06-.23.1-.64.12a4.75,4.75,0,0,0-1.63.54,6.76,6.76,0,0,0-2,1.81,15,15,0,0,0-1.86,3.19c-1,2.6-2.29,5.77-3.35,9.36a100.12,100.12,0,0,0-4.15,23.92c-.21,3.74-.12,7.12,0,10,.27,5.66.78,9.16.51,9.22s-1.16-3.4-1.76-9.13a79.4,79.4,0,0,1-.36-10.11,86.14,86.14,0,0,1,4.22-24.35l.9-2.64,1-2.44c.29-.79.65-1.53,1-2.26s.6-1.4.95-2.06a14.57,14.57,0,0,1,2.23-3.31,7.09,7.09,0,0,1,2.5-1.79,4,4,0,0,1,1.92-.26C343.55,155.66,343.76,155.75,343.75,155.81Z"/><path class="u" d="M231.14,139.09c.25,0,.4,2.91.49,7.6s.15,11.19-.19,18.37c-.17,3.59-.46,7-.82,10.11l-.28,2.26c-.11.73-.21,1.44-.32,2.13-.2,1.37-.44,2.64-.65,3.8-.46,2.31-.88,4.17-1.25,5.43s-.61,2-.73,1.94-.1-.76.05-2.06.4-3.19.69-5.5c.13-1.17.31-2.43.44-3.8.07-.69.15-1.39.23-2.12L229,175c.27-3.08.5-6.46.68-10,.33-7.12.46-13.61.7-18.3S230.9,139.08,231.14,139.09Z"/><path class="u" d="M263.18,310.49c-.13,0-.44-1.58-.9-4.49l-.38-2.42c-.12-.89-.24-1.86-.37-2.9-.24-2.08-.55-4.44-.77-7.07-.11-1.31-.23-2.69-.36-4.12s-.19-2.93-.29-4.48-.21-3.14-.24-4.8-.12-3.35-.18-5.09c-.12-7,0-14.64.42-22.68s1.33-15.67,2.29-22.57c.26-1.73.52-3.4.77-5s.55-3.21.82-4.73.53-3,.82-4.42.58-2.76.85-4c.52-2.59,1.12-4.9,1.6-6.93.25-1,.48-2,.71-2.83l.66-2.36a22.94,22.94,0,0,1,1.43-4.36,22.36,22.36,0,0,1-.76,4.52l-.51,2.39-.56,2.85c-.4,2.05-.91,4.37-1.35,7l-.74,4.05c-.25,1.41-.46,2.89-.71,4.41s-.53,3.1-.73,4.72l-.69,5c-.87,6.88-1.64,14.47-2.14,22.46s-.59,15.61-.55,22.54q0,2.61.09,5.07c0,1.64.11,3.24.16,4.78s.1,3,.19,4.46l.25,4.11c.13,2.62.35,5,.5,7.07l.23,2.9c.08.89.15,1.7.22,2.43A23.41,23.41,0,0,1,263.18,310.49Z"/><path class="x" d="M282.28,145.54s-34.64,81.83-28.47,115.69l7.5,11.3,12.36-9.36s-6.26-33,.87-67.76,12-48.92,12-48.92Z"/><path class="u" d="M308.51,260.87c.1.21-.91.93-2.76,1.64l-.73.27-.81.24c-.55.17-1.16.29-1.81.43a22.5,22.5,0,0,1-8.5,0c-.64-.14-1.25-.26-1.81-.43l-.8-.24-.73-.27c-1.85-.71-2.86-1.43-2.77-1.64s1.27.07,3.12.44l.72.15.79.13c.54.1,1.12.17,1.73.25a33.45,33.45,0,0,0,8,0c.61-.08,1.2-.15,1.74-.25l.79-.13.72-.15C307.25,260.94,308.41,260.64,308.51,260.87Z"/><path class="u" d="M305.23,265.39c.1.47-2.41,1.44-5.62,2.16s-5.9.91-6,.44,2.41-1.45,5.63-2.16S305.12,264.91,305.23,265.39Z"/><path class="u" d="M294.43,192.73l-1.5,15.43,9.63,7.48,8.29-7.91,1.29-13.28Z"/><path class="y" d="M255.85,309.24l1.26,7,16.31-1.34-.73-6.47Z"/><path class="z" d="M268.27,308.49l-4.71,7.25-2.69.22,4.09-7.2Z"/><path class="aa" d="M273.23,313.79l17.68-.94-.26-4.9-18,.71Z"/><path class="aa" d="M297.14,307.76l.28,4.79,16.62-.61-.36-4.8Z"/><path class="aa" d="M256.74,314.22l-14.77.57-.54-5.11,14.42-.44Z"/><path class="aa" d="M235.09,310.07l.38,4.67L224.8,315l.55-4.82Z"/><path class="g" d="M259.7,356.39v97.43h9.6V356.9Z"/><path class="f" d="M253.48,357.18v40s20.9.79,21.69,0,0-40.34,0-40.34A78.79,78.79,0,0,0,253.48,357.18Z"/><path class="l" d="M351.5,162.76s96.08,92.78,60.86,111.58H329.21L326,261.91s55.41-13.1,54.68-21.86-51.76-23.44-51.76-23.44S338.87,157.48,351.5,162.76Z"/><path class="m" d="M223.75,71.84c-5.28-1.51-7.92,1.35-8.29,0s3.93-24.48.77-25.61-1.49,13.08-4,13.9c0,0,2-20.26-1.17-21.91s-.85,16.38-2.47,18.49c0,0-1.2-17.69-4-17s2.61,16.85-.36,17.53c0,0-1.8-15-4.32-13.38s.56,14.45-.56,18.53c-.71,2.62-5,19.65-4.79,20s6.19,3.78,6.19,3.78,4-6.06,16.31-9.43a10.7,10.7,0,0,1,7.12.48A7.93,7.93,0,0,1,226,78.24C228,79.92,229.31,73.45,223.75,71.84Z"/><path class="l" d="M225.83,141.36c-1,2.89-47,21.57-50.66,15.54S204.5,87.31,204.5,87.31L192,79.58S119.08,161,146.47,186.26s80.63,6.87,80.63,6.87Z"/><path class="g" d="M98.56,253.12v11.77l-34.51,9.45,81.5.12-39.23-9.57V253.12Z"/><path class="m" d="M327.06,266.08s-33.29,1.66-37.74,8.26h39.89Z"/><path class="ab" d="M18.89,138.33,161.14,62.87l187.32-3.52,13.7,109.94L193.74,254.75Z"/><path class="i" d="M18.89,138.33l10,113.6,164.84,2.82-6.89-109.09Z"/><path class="ac" d="M310.53,508.16s18.06,6.29,15.22,7.81c-4.62,2.48-24.63-7.81-24.63-7.81Z"/><path class="ac" d="M235.55,503.61s-7.52,11.8-12,11.3,2.48-11.3,2.48-11.3Z"/><rect class="ad" y="274.34" width="574" height="14.17"/><path class="ae" d="M402.94,288.51V478.35s-1.68,41.87,35.51,37.26h35.13v-5.86H438.26s-27.75.88-28.2-31.32,1.77-189.92,1.77-189.92Z"/><path class="ae" d="M453.81,288.51,411.36,324l.08-6.82,36.39-28.71h8.78"/><path class="ae" d="M142.8,288.51V478.35s1.68,41.87-35.5,37.26H72.15v-5.86h35.34s27.75.88,28.2-31.32-1.77-189.92-1.77-189.92Z"/><path class="ae" d="M91.93,288.51,134.38,324l-.08-6.82L97.91,288.51H89.13"/><path class="af" d="M91.6,288.51h6.31l3.82,3-6.11.07Z"/><path class="af" d="M134,293.35h8.83v-4.84h-8.88v5.09"/><path class="af" d="M402.94,288.51v4.23l8.84.3.06-4.53Z"/><path class="af" d="M447.83,288.51,445,290.78h6.14l2.71-2.27Z"/><rect class="ag" y="274.34" width="18.63" height="14.17"/></svg>